<svg width="21" height="20" viewBox="0 0 21 20" fill="none" xmlns="http://www.w3.org/2000/svg">
<path d="M18.8369 7.06597L13.764 6.32639L11.4967 1.72917C11.0904 0.909723 9.91332 0.899307 9.5036 1.72917L7.23624 6.32639L2.16332 7.06597C1.2536 7.19792 0.889014 8.31945 1.54874 8.96181L5.21887 12.5382L4.35082 17.5903C4.19457 18.5035 5.15638 19.1875 5.96193 18.7604L10.5001 16.375L15.0383 18.7604C15.8439 19.184 16.8057 18.5035 16.6494 17.5903L15.7814 12.5382L19.4515 8.96181C20.1112 8.31945 19.7467 7.19792 18.8369 7.06597ZM13.9932 11.9549L14.8161 16.7604L10.5001 14.4931L6.18415 16.7604L7.00707 11.9549L3.51401 8.55208L8.3404 7.8507L10.5001 3.4757L12.6598 7.8507L17.4862 8.55208L13.9932 11.9549Z" fill="black"/>
</svg>
