<svg width="13" height="13" viewBox="0 0 13 13" fill="none" xmlns="http://www.w3.org/2000/svg">
<path d="M10.8125 5.9375H7.0625V2.1875C7.0625 2.08391 6.97859 2 6.875 2H6.125C6.02141 2 5.9375 2.08391 5.9375 2.1875V5.9375H2.1875C2.08391 5.9375 2 6.02141 2 6.125V6.875C2 6.97859 2.08391 7.0625 2.1875 7.0625H5.9375V10.8125C5.9375 10.9161 6.02141 11 6.125 11H6.875C6.97859 11 7.0625 10.9161 7.0625 10.8125V7.0625H10.8125C10.9161 7.0625 11 6.97859 11 6.875V6.125C11 6.02141 10.9161 5.9375 10.8125 5.9375Z" fill="black" stroke="black" stroke-width="0.0234375"/>
</svg>
